<svg xmlns="http://www.w3.org/2000/svg" xmlns:xlink="http://www.w3.org/1999/xlink" width="500" zoomAndPan="magnify" viewBox="0 0 375 112.499997" height="150" preserveAspectRatio="xMidYMid meet" version="1.0"><defs><g/></defs><g fill="#2196f3" fill-opacity="1"><g transform="translate(4.455706, 79.674672)"><g><path d="M 17.53125 -47.34375 L 29.078125 -21.59375 L 40.609375 -47.34375 L 60 -47.34375 L 34.609375 0 L 23.53125 0 L -1.84375 -47.34375 Z M 17.53125 -47.34375 "/></g></g></g><g fill="#2196f3" fill-opacity="1"><g transform="translate(55.398997, 79.674672)"><g><path d="M 53.4375 -21.40625 L 19.109375 -21.40625 C 19.109375 -18.082031 20.179688 -15.617188 22.328125 -14.015625 C 24.484375 -12.421875 26.820312 -11.625 29.34375 -11.625 C 31.988281 -11.625 34.082031 -11.976562 35.625 -12.6875 C 37.164062 -13.394531 38.921875 -14.796875 40.890625 -16.890625 L 52.703125 -10.984375 C 47.773438 -2.734375 39.59375 1.390625 28.15625 1.390625 C 21.007812 1.390625 14.882812 -1.054688 9.78125 -5.953125 C 4.675781 -10.847656 2.125 -16.738281 2.125 -23.625 C 2.125 -30.519531 4.675781 -36.425781 9.78125 -41.34375 C 14.882812 -46.269531 21.007812 -48.734375 28.15625 -48.734375 C 35.65625 -48.734375 41.757812 -46.5625 46.46875 -42.21875 C 51.175781 -37.882812 53.53125 -31.6875 53.53125 -23.625 C 53.53125 -22.519531 53.5 -21.78125 53.4375 -21.40625 Z M 19.5625 -30.453125 L 37.5625 -30.453125 C 37.195312 -32.921875 36.226562 -34.816406 34.65625 -36.140625 C 33.082031 -37.460938 31.066406 -38.125 28.609375 -38.125 C 25.898438 -38.125 23.742188 -37.414062 22.140625 -36 C 20.546875 -34.582031 19.6875 -32.734375 19.5625 -30.453125 Z M 19.5625 -30.453125 "/></g></g></g><g fill="#2196f3" fill-opacity="1"><g transform="translate(103.850441, 79.674672)"><g><path d="M 5.53125 0 L 5.53125 -47.34375 L 21.875 -47.34375 L 21.875 -40.515625 L 22.0625 -40.515625 C 22.1875 -40.765625 22.382812 -41.070312 22.65625 -41.4375 C 22.9375 -41.8125 23.535156 -42.457031 24.453125 -43.375 C 25.378906 -44.300781 26.363281 -45.132812 27.40625 -45.875 C 28.457031 -46.613281 29.8125 -47.273438 31.46875 -47.859375 C 33.132812 -48.441406 34.828125 -48.734375 36.546875 -48.734375 C 38.328125 -48.734375 40.078125 -48.484375 41.796875 -47.984375 C 43.523438 -47.492188 44.789062 -47.003906 45.59375 -46.515625 L 46.890625 -45.78125 L 40.0625 -31.9375 C 38.03125 -33.65625 35.195312 -34.515625 31.5625 -34.515625 C 29.59375 -34.515625 27.898438 -34.082031 26.484375 -33.21875 C 25.066406 -32.363281 24.066406 -31.320312 23.484375 -30.09375 C 22.898438 -28.863281 22.484375 -27.816406 22.234375 -26.953125 C 21.992188 -26.085938 21.875 -25.410156 21.875 -24.921875 L 21.875 0 Z M 5.53125 0 "/></g></g></g><g fill="#2196f3" fill-opacity="1"><g transform="translate(142.611417, 79.674672)"><g><path d="M 17.53125 -47.34375 L 29.078125 -21.59375 L 40.609375 -47.34375 L 60 -47.34375 L 34.609375 0 L 23.53125 0 L -1.84375 -47.34375 Z M 17.53125 -47.34375 "/></g></g></g><g fill="#2196f3" fill-opacity="1"><g transform="translate(193.554714, 79.674672)"><g><path d="M 8.765625 -5.859375 C 4.335938 -10.691406 2.125 -16.613281 2.125 -23.625 C 2.125 -30.644531 4.335938 -36.582031 8.765625 -41.4375 C 13.191406 -46.300781 18.820312 -48.734375 25.65625 -48.734375 C 31.9375 -48.734375 37.109375 -46.765625 41.171875 -42.828125 L 41.171875 -47.34375 L 57.5 -47.34375 L 57.5 0 L 41.34375 0 L 41.34375 -5.359375 L 41.171875 -5.359375 C 37.109375 -0.859375 31.9375 1.390625 25.65625 1.390625 C 18.820312 1.390625 13.191406 -1.023438 8.765625 -5.859375 Z M 22.65625 -31.65625 C 20.53125 -29.5625 19.46875 -26.882812 19.46875 -23.625 C 19.46875 -20.363281 20.484375 -17.703125 22.515625 -15.640625 C 24.546875 -13.578125 27.222656 -12.546875 30.546875 -12.546875 C 33.742188 -12.546875 36.375 -13.59375 38.4375 -15.6875 C 40.5 -17.78125 41.53125 -20.425781 41.53125 -23.625 C 41.53125 -26.882812 40.46875 -29.5625 38.34375 -31.65625 C 36.226562 -33.75 33.628906 -34.796875 30.546875 -34.796875 C 27.410156 -34.796875 24.78125 -33.75 22.65625 -31.65625 Z M 22.65625 -31.65625 "/></g></g></g><g fill="#2196f3" fill-opacity="1"><g transform="translate(249.389389, 79.674672)"><g><path d="M 5.53125 0 L 5.53125 -47.34375 L 21.875 -47.34375 L 21.875 -42.359375 L 22.0625 -42.359375 C 26.300781 -46.609375 30.820312 -48.734375 35.625 -48.734375 C 37.96875 -48.734375 40.289062 -48.425781 42.59375 -47.8125 C 44.90625 -47.195312 47.117188 -46.242188 49.234375 -44.953125 C 51.359375 -43.660156 53.082031 -41.828125 54.40625 -39.453125 C 55.726562 -37.085938 56.390625 -34.335938 56.390625 -31.203125 L 56.390625 0 L 40.0625 0 L 40.0625 -26.765625 C 40.0625 -29.222656 39.273438 -31.375 37.703125 -33.21875 C 36.128906 -35.070312 34.082031 -36 31.5625 -36 C 29.101562 -36 26.875 -35.039062 24.875 -33.125 C 22.875 -31.21875 21.875 -29.097656 21.875 -26.765625 L 21.875 0 Z M 5.53125 0 "/></g></g></g><g fill="#2196f3" fill-opacity="1"><g transform="translate(303.193683, 79.674672)"><g><path d="M 8.765625 -5.859375 C 4.335938 -10.691406 2.125 -16.613281 2.125 -23.625 C 2.125 -30.644531 4.335938 -36.582031 8.765625 -41.4375 C 13.191406 -46.300781 18.820312 -48.734375 25.65625 -48.734375 C 31.9375 -48.734375 37.109375 -46.765625 41.171875 -42.828125 L 41.171875 -47.34375 L 57.5 -47.34375 L 57.5 0 L 41.34375 0 L 41.34375 -5.359375 L 41.171875 -5.359375 C 37.109375 -0.859375 31.9375 1.390625 25.65625 1.390625 C 18.820312 1.390625 13.191406 -1.023438 8.765625 -5.859375 Z M 22.65625 -31.65625 C 20.53125 -29.5625 19.46875 -26.882812 19.46875 -23.625 C 19.46875 -20.363281 20.484375 -17.703125 22.515625 -15.640625 C 24.546875 -13.578125 27.222656 -12.546875 30.546875 -12.546875 C 33.742188 -12.546875 36.375 -13.59375 38.4375 -15.6875 C 40.5 -17.78125 41.53125 -20.425781 41.53125 -23.625 C 41.53125 -26.882812 40.46875 -29.5625 38.34375 -31.65625 C 36.226562 -33.75 33.628906 -34.796875 30.546875 -34.796875 C 27.410156 -34.796875 24.78125 -33.75 22.65625 -31.65625 Z M 22.65625 -31.65625 "/></g></g></g></svg>